<svg width="96" height="112" viewBox="0 0 96 112" fill="none" xmlns="http://www.w3.org/2000/svg" shape-rendering="crispEdges">
  <rect x="24" y="0" width="16" height="8" fill="#111111"/>
  <rect x="56" y="0" width="16" height="8" fill="#111111"/>
  <rect x="32" y="0" width="8" height="8" fill="#7DBDFF"/>
  <rect x="56" y="0" width="8" height="8" fill="#7DBDFF"/>
  <rect x="16" y="8" width="16" height="8" fill="#111111"/>
  <rect x="64" y="8" width="16" height="8" fill="#111111"/>
  <rect x="24" y="8" width="48" height="8" fill="#54C3FF"/>
  <rect x="8" y="16" width="8" height="8" fill="#111111"/>
  <rect x="80" y="16" width="8" height="8" fill="#111111"/>
  <rect x="16" y="16" width="64" height="48" fill="#54C3FF"/>
  <rect x="8" y="24" width="8" height="40" fill="#111111"/>
  <rect x="80" y="24" width="8" height="40" fill="#111111"/>
  <rect x="16" y="64" width="64" height="8" fill="#111111"/>
  <rect x="24" y="72" width="16" height="24" fill="#111111"/>
  <rect x="56" y="72" width="16" height="24" fill="#111111"/>
  <rect x="32" y="72" width="8" height="24" fill="#54C3FF"/>
  <rect x="56" y="72" width="8" height="24" fill="#54C3FF"/>
  <rect x="24" y="24" width="16" height="16" fill="#FFFFFF"/>
  <rect x="56" y="24" width="16" height="16" fill="#FFFFFF"/>
  <rect x="32" y="32" width="8" height="8" fill="#111111"/>
  <rect x="56" y="32" width="8" height="8" fill="#111111"/>
  <rect x="24" y="40" width="16" height="8" fill="#BFEAFF"/>
  <rect x="56" y="40" width="16" height="8" fill="#BFEAFF"/>
  <rect x="40" y="40" width="16" height="8" fill="#111111"/>
  <rect x="40" y="48" width="8" height="8" fill="#111111"/>
  <rect x="48" y="48" width="8" height="8" fill="#111111"/>
  <rect x="0" y="48" width="8" height="24" fill="#111111"/>
  <rect x="88" y="48" width="8" height="24" fill="#111111"/>
  <rect x="0" y="56" width="8" height="16" fill="#54C3FF"/>
  <rect x="88" y="56" width="8" height="16" fill="#54C3FF"/>
  <rect x="72" y="48" width="8" height="8" fill="#111111"/>
  <rect x="80" y="56" width="8" height="8" fill="#111111"/>
  <rect x="88" y="64" width="8" height="8" fill="#111111"/>
  <rect x="72" y="56" width="8" height="8" fill="#54C3FF"/>
  <rect x="80" y="64" width="8" height="8" fill="#54C3FF"/>
  <rect x="88" y="72" width="8" height="8" fill="#54C3FF"/>
  <rect x="88" y="80" width="8" height="8" fill="#111111"/>
  <rect x="80" y="88" width="8" height="8" fill="#111111"/>
  <rect x="72" y="88" width="8" height="8" fill="#111111"/>
  <rect x="72" y="80" width="8" height="8" fill="#54C3FF"/>
  <rect x="80" y="80" width="8" height="8" fill="#54C3FF"/>
  <rect x="40" y="56" width="16" height="16" fill="#E9FBFF"/>
  <rect x="4" y="8" width="12" height="8" fill="#111111"/>
  <rect x="4" y="16" width="4" height="20" fill="#111111"/>
  <rect x="12" y="16" width="4" height="20" fill="#111111"/>
  <rect x="8" y="12" width="4" height="4" fill="#FF9C2A"/>
  <rect x="0" y="16" width="4" height="16" fill="#FF9C2A"/>
  <rect x="16" y="16" width="4" height="16" fill="#FF9C2A"/>
  <rect x="4" y="20" width="4" height="12" fill="#54C3FF"/>
  <rect x="12" y="20" width="4" height="12" fill="#54C3FF"/>
</svg>
