<svg width="48" height="48" viewBox="0 0 48 48" fill="none" xmlns="http://www.w3.org/2000/svg" shape-rendering="crispEdges">
  <rect x="9" y="4" width="9" height="4" fill="#111111"/>
  <rect x="30" y="4" width="9" height="4" fill="#111111"/>
  <rect x="13" y="4" width="5" height="4" fill="#FFB977"/>
  <rect x="30" y="4" width="5" height="4" fill="#FFB977"/>
  <rect x="5" y="8" width="4" height="4" fill="#111111"/>
  <rect x="39" y="8" width="4" height="4" fill="#111111"/>
  <rect x="9" y="8" width="30" height="4" fill="#34363F"/>
  <rect x="5" y="12" width="4" height="18" fill="#111111"/>
  <rect x="39" y="12" width="4" height="18" fill="#111111"/>
  <rect x="9" y="12" width="30" height="18" fill="#34363F"/>
  <rect x="13" y="16" width="9" height="9" fill="#FFFFFF"/>
  <rect x="26" y="16" width="9" height="9" fill="#FFFFFF"/>
  <rect x="18" y="20" width="4" height="5" fill="#111111"/>
  <rect x="26" y="20" width="4" height="5" fill="#111111"/>
  <rect x="13" y="25" width="9" height="4" fill="#FFC9E2"/>
  <rect x="26" y="25" width="9" height="4" fill="#FFC9E2"/>
  <rect x="18" y="28" width="13" height="4" fill="#111111"/>
  <rect x="18" y="32" width="5" height="4" fill="#F3D359"/>
  <rect x="26" y="32" width="5" height="4" fill="#F3D359"/>
  <rect x="9" y="30" width="30" height="4" fill="#111111"/>
</svg>
