<svg width="132" height="166" viewBox="0 0 132 166" fill="none" xmlns="http://www.w3.org/2000/svg" shape-rendering="crispEdges">
  <rect x="46" y="10" width="40" height="6" fill="#111111"/>
  <rect x="34" y="16" width="12" height="6" fill="#111111"/>
  <rect x="86" y="16" width="12" height="6" fill="#111111"/>
  <rect x="28" y="22" width="6" height="12" fill="#111111"/>
  <rect x="98" y="22" width="6" height="12" fill="#111111"/>
  <rect x="22" y="34" width="6" height="52" fill="#111111"/>
  <rect x="104" y="34" width="6" height="52" fill="#111111"/>
  <rect x="28" y="86" width="6" height="20" fill="#111111"/>
  <rect x="98" y="86" width="6" height="20" fill="#111111"/>
  <rect x="34" y="106" width="12" height="6" fill="#111111"/>
  <rect x="86" y="106" width="12" height="6" fill="#111111"/>
  <rect x="46" y="112" width="40" height="6" fill="#111111"/>
  <rect x="34" y="22" width="64" height="84" fill="#FFF7EC"/>
  <rect x="28" y="34" width="76" height="52" fill="#FFF7EC"/>
  <rect x="58" y="34" width="12" height="12" fill="#FF8FC6"/>
  <rect x="52" y="46" width="12" height="12" fill="#FF8FC6"/>
  <rect x="64" y="46" width="12" height="12" fill="#FF8FC6"/>
  <rect x="52" y="58" width="24" height="6" fill="#FF8FC6"/>
  <rect x="48" y="66" width="6" height="18" fill="#111111"/>
  <rect x="74" y="66" width="6" height="18" fill="#111111"/>
  <rect x="54" y="84" width="20" height="6" fill="#111111"/>
  <rect x="46" y="28" width="8" height="8" fill="#FFCDE8"/>
  <rect x="82" y="44" width="8" height="8" fill="#FFCDE8"/>
  <rect x="40" y="70" width="8" height="8" fill="#FFCDE8"/>
  <rect x="80" y="78" width="8" height="8" fill="#FFCDE8"/>
  <rect x="32" y="118" width="68" height="8" fill="#8A5B33"/>
  <rect x="20" y="124" width="92" height="10" fill="#D4A72C"/>
  <rect x="12" y="134" width="108" height="10" fill="#8A5B33"/>
  <rect x="6" y="144" width="120" height="14" fill="#C28B1B"/>
</svg>
